<?xml version="1.0" encoding="utf-8"?>
<!-- Generator: Adobe Illustrator 19.0.1, SVG Export Plug-In . SVG Version: 6.00 Build 0)  -->
<svg version="1.1" xmlns="http://www.w3.org/2000/svg" xmlns:xlink="http://www.w3.org/1999/xlink" x="0px" y="0px"
	 viewBox="-230 553 330 120" style="enable-background:new -230 553 330 120;" xml:space="preserve">
<style type="text/css">
	.st0{fill:#A1A1A1;}
	.st1{fill:#3A5A98;}
	.st2{fill:#2CA8DF;}
	.st3{fill:#EA1F27;}
	.st4{fill:#00328D;}
	.st5{fill:#2E2E2E;}
	.st6{display:none;}
	.st7{display:inline;fill:none;stroke:#000000;stroke-miterlimit:10;}
</style>
<g id="Layer_1">
	<path class="st0" d="M-121.7,568.2h-2.1v7.6h-3.3v-7.6h-1.6v-2.8h1.6v-2.3c0,0,0.1-2.5,2.9-2.5s2.6,0,2.6,0v2.6h-1.7
		c0,0-0.6-0.1-0.6,0.6v1.7h2.5L-121.7,568.2z"/>
	<path class="st0" d="M-88.9,565.6c0,0.1,0,0.3,0,0.4c0,4.2-3.2,9-8.9,9c-1.8,0-3.5-0.5-4.8-1.5c0.2,0,0.5,0,0.7,0
		c1.5,0,2.8-0.5,3.9-1.4c-1.4,0-2.5-0.9-2.9-2.2c0.2,0,0.4,0.1,0.6,0.1c0.3,0,0.5,0,0.8-0.1c-1.5-0.3-2.5-1.6-2.5-3.1l0,0
		c0.4,0.2,0.9,0.4,1.5,0.4c-0.8-0.5-1.4-1.6-1.4-2.6c0-0.6,0.1-1.2,0.4-1.6c1.6,1.9,3.9,3.1,6.5,3.4c-0.1-0.2-0.1-0.5-0.1-0.7
		c0-1.8,1.4-3.1,3.2-3.1c0.9,0,1.7,0.4,2.3,1c0.7-0.1,1.4-0.4,2-0.7c-0.2,0.7-0.7,1.4-1.4,1.8c0.6-0.1,1.3-0.2,1.8-0.5
		C-87.8,564.7-88.3,565.2-88.9,565.6z"/>
	<path class="st0" d="M-56.7,564.6c-0.2-0.9-0.9-1.6-1.9-1.7c-2.1-0.2-4.3-0.2-6.5-0.2c-2.2,0-4.3,0-6.5,0.2
		c-0.9,0.1-1.7,0.7-1.9,1.7c-0.3,1.3-0.3,2.7-0.3,4.1s0,2.7,0.3,4.1c0.2,0.9,0.9,1.6,1.9,1.7c2.1,0.2,4.3,0.2,6.5,0.2
		c2.2,0,4.3,0,6.5-0.2c0.9-0.1,1.7-0.7,1.9-1.7c0.3-1.3,0.3-2.7,0.3-4.1S-56.4,566-56.7,564.6z M-67.3,571.4v-5.7
		c1.8,0.9,3.7,1.9,5.5,2.8C-63.6,569.5-65.4,570.5-67.3,571.4z"/>
	<path class="st0" d="M-25.8,575l-4.2-4.2c0.9-1.3,1.5-2.9,1.5-4.6c0-4.4-3.6-8.1-8.1-8.1c-4.4,0-8.1,3.6-8.1,8.1
		c0,4.4,3.6,8.1,8.1,8.1c1.7,0,3.3-0.5,4.6-1.5l4.2,4.2c0.3,0.3,0.6,0.4,0.9,0.4s0.7-0.1,0.9-0.4C-25.2,576.4-25.2,575.6-25.8,575z
		 M-36.6,571.9c-3.1,0-5.8-2.5-5.8-5.8c0-3.2,2.5-5.8,5.8-5.8c3.2,0,5.8,2.5,5.8,5.8C-30.8,569.4-33.4,571.9-36.6,571.9z"/>
	<g>
		<path class="st0" d="M-210.4,565.9v-2.1c0-2.6-2.1-4.6-4.6-4.6c-2.6,0-4.6,2.1-4.6,4.6v2.1h-1v8.4h11.1v-8.4H-210.4z
			 M-214.2,572.1h-1.5l0.2-2.4c-0.3-0.2-0.5-0.5-0.5-0.9c0-0.6,0.5-1,1-1c0.6,0,1,0.4,1,1c0,0.4-0.2,0.7-0.5,0.9L-214.2,572.1z
			 M-212.1,565.9h-5.8v-2.1c0-1.5,1.2-2.9,2.9-2.9c1.5,0,2.9,1.2,2.9,2.9V565.9z"/>
	</g>
	<path class="st0" d="M-214.2,571.9"/>
	<path class="st1" d="M-121.7,598.2h-2.1v7.6h-3.3v-7.6h-1.6v-2.8h1.6v-2.3c0,0,0.1-2.5,2.9-2.5s2.6,0,2.6,0v2.6h-1.7
		c0,0-0.6-0.1-0.6,0.6v1.7h2.5L-121.7,598.2z"/>
	<path class="st2" d="M-88.9,595.6c0,0.1,0,0.3,0,0.4c0,4.2-3.2,9-8.9,9c-1.8,0-3.5-0.5-4.8-1.5c0.2,0,0.5,0,0.7,0
		c1.5,0,2.8-0.5,3.9-1.4c-1.4,0-2.5-0.9-2.9-2.2c0.2,0,0.4,0.1,0.6,0.1c0.3,0,0.5,0,0.8-0.1c-1.5-0.3-2.5-1.6-2.5-3.1l0,0
		c0.4,0.2,0.9,0.4,1.5,0.4c-0.8-0.5-1.4-1.6-1.4-2.6c0-0.6,0.1-1.2,0.4-1.6c1.6,1.9,3.9,3.1,6.5,3.4c-0.1-0.2-0.1-0.5-0.1-0.7
		c0-1.8,1.4-3.1,3.2-3.1c0.9,0,1.7,0.4,2.3,1c0.7-0.1,1.4-0.4,2-0.7c-0.2,0.7-0.7,1.4-1.4,1.8c0.6-0.1,1.3-0.2,1.8-0.5
		C-87.8,594.7-88.3,595.2-88.9,595.6z"/>
	<path class="st3" d="M-56.7,594.6c-0.2-0.9-0.9-1.6-1.9-1.7c-2.1-0.2-4.3-0.2-6.5-0.2c-2.2,0-4.3,0-6.5,0.2
		c-0.9,0.1-1.7,0.7-1.9,1.7c-0.3,1.3-0.3,2.7-0.3,4.1s0,2.7,0.3,4.1c0.2,0.9,0.9,1.6,1.9,1.7c2.1,0.2,4.3,0.2,6.5,0.2
		c2.2,0,4.3,0,6.5-0.2c0.9-0.1,1.7-0.7,1.9-1.7c0.3-1.3,0.3-2.7,0.3-4.1S-56.4,596-56.7,594.6z M-67.3,601.4v-5.7
		c1.8,0.9,3.7,1.9,5.5,2.8C-63.6,599.5-65.4,600.5-67.3,601.4z"/>
	<path class="st4" d="M-25.8,605l-4.2-4.2c0.9-1.3,1.5-2.9,1.5-4.6c0-4.4-3.6-8.1-8.1-8.1c-4.4,0-8.1,3.6-8.1,8.1
		c0,4.4,3.6,8.1,8.1,8.1c1.7,0,3.3-0.5,4.6-1.5l4.2,4.2c0.3,0.3,0.6,0.4,0.9,0.4s0.7-0.1,0.9-0.4C-25.2,606.4-25.2,605.6-25.8,605z
		 M-36.6,601.9c-3.1,0-5.8-2.5-5.8-5.8c0-3.2,2.5-5.8,5.8-5.8c3.2,0,5.8,2.5,5.8,5.8C-30.8,599.4-33.4,601.9-36.6,601.9z"/>
	<path class="st5" d="M-214.2,601.9"/>
	<path class="st4" d="M-210.4,595.9v-2.1c0-2.6-2.1-4.6-4.6-4.6c-2.6,0-4.6,2.1-4.6,4.6v2.1h-1v8.4h11.1v-8.4H-210.4z M-214.2,602.1
		h-1.5l0.2-2.4c-0.3-0.2-0.5-0.5-0.5-0.9c0-0.6,0.5-1,1-1c0.6,0,1,0.4,1,1c0,0.4-0.2,0.7-0.5,0.9L-214.2,602.1z M-212.1,595.9h-5.8
		v-2.1c0-1.5,1.2-2.9,2.9-2.9c1.5,0,2.9,1.2,2.9,2.9V595.9z"/>
	<g id="Layer_2_1_" class="st6">
		<rect x="-230" y="553" class="st7" width="30" height="30"/>
		<rect x="-200" y="553" class="st7" width="30" height="30"/>
		<rect x="-170" y="553" class="st7" width="30" height="30"/>
		<rect x="-140" y="553" class="st7" width="30" height="30"/>
		<rect x="-110" y="553" class="st7" width="30" height="30"/>
		<rect x="-80" y="553" class="st7" width="30" height="30"/>
		<rect x="-50" y="553" class="st7" width="30" height="30"/>
		<rect x="-20" y="553" class="st7" width="30" height="30"/>
		<rect x="-230" y="583" class="st7" width="30" height="30"/>
		<rect x="-200" y="583" class="st7" width="30" height="30"/>
		<rect x="-170" y="583" class="st7" width="30" height="30"/>
		<rect x="-140" y="583" class="st7" width="30" height="30"/>
		<rect x="-110" y="583" class="st7" width="30" height="30"/>
		<rect x="-80" y="583" class="st7" width="30" height="30"/>
		<rect x="-50" y="583" class="st7" width="30" height="30"/>
		<rect x="-20" y="583" class="st7" width="30" height="30"/>
		<rect x="-230" y="613" class="st7" width="30" height="30"/>
		<rect x="-200" y="613" class="st7" width="30" height="30"/>
		<rect x="-170" y="613" class="st7" width="30" height="30"/>
		<rect x="-140" y="613" class="st7" width="30" height="30"/>
		<rect x="-110" y="613" class="st7" width="30" height="30"/>
		<rect x="-80" y="613" class="st7" width="30" height="30"/>
		<rect x="-50" y="613" class="st7" width="30" height="30"/>
		<rect x="-20" y="613" class="st7" width="30" height="30"/>
		<rect x="-230" y="643" class="st7" width="30" height="30"/>
		<rect x="-200" y="643" class="st7" width="30" height="30"/>
		<rect x="-170" y="643" class="st7" width="30" height="30"/>
		<rect x="-140" y="643" class="st7" width="30" height="30"/>
		<rect x="-110" y="643" class="st7" width="30" height="30"/>
		<rect x="-80" y="643" class="st7" width="30" height="30"/>
		<rect x="-50" y="643" class="st7" width="30" height="30"/>
		<rect x="-20" y="643" class="st7" width="30" height="30"/>
		<rect x="10" y="553" class="st7" width="30" height="30"/>
		<rect x="40" y="553" class="st7" width="30" height="30"/>
		<rect x="70" y="553" class="st7" width="30" height="30"/>
		<rect x="10" y="583" class="st7" width="30" height="30"/>
		<rect x="40" y="583" class="st7" width="30" height="30"/>
		<rect x="70" y="583" class="st7" width="30" height="30"/>
		<rect x="10" y="613" class="st7" width="30" height="30"/>
		<rect x="40" y="613" class="st7" width="30" height="30"/>
		<rect x="70" y="613" class="st7" width="30" height="30"/>
		<rect x="10" y="643" class="st7" width="30" height="30"/>
		<rect x="40" y="643" class="st7" width="30" height="30"/>
		<rect x="70" y="643" class="st7" width="30" height="30"/>
	</g>
</g>
<g id="Layer_2">
	<path class="st0" d="M-173.6,636.9l-5.3-5.3c1.2-1.6,1.9-3.6,1.9-5.8c0-5.5-4.5-10.2-10.2-10.2c-5.5,0-10.2,4.5-10.2,10.2
		c0,5.5,4.5,10.2,10.2,10.2c2.1,0,4.2-0.6,5.8-1.9l5.3,5.3c0.4,0.4,0.8,0.5,1.1,0.5s0.9-0.1,1.1-0.5
		C-172.8,638.7-172.8,637.7-173.6,636.9z M-187.2,633c-3.9,0-7.3-3.1-7.3-7.3c0-4,3.1-7.3,7.3-7.3c4,0,7.3,3.1,7.3,7.3
		C-179.9,629.9-183.1,633-187.2,633z"/>
	<path class="st4" d="M-173.6,666.9l-5.3-5.3c1.2-1.6,1.9-3.6,1.9-5.8c0-5.5-4.5-10.2-10.2-10.2c-5.5,0-10.2,4.5-10.2,10.2
		c0,5.5,4.5,10.2,10.2,10.2c2.1,0,4.2-0.6,5.8-1.9l5.3,5.3c0.4,0.4,0.8,0.5,1.1,0.5s0.9-0.1,1.1-0.5
		C-172.8,668.7-172.8,667.7-173.6,666.9z M-187.2,663c-3.9,0-7.3-3.1-7.3-7.3c0-4,3.1-7.3,7.3-7.3c4,0,7.3,3.1,7.3,7.3
		C-179.9,659.9-183.1,663-187.2,663z"/>
	<g>
		<rect x="-228.3" y="616.7" class="st0" width="26" height="3"/>
		<polyline class="st0" points="-228.3,626.7 -202.3,626.7 -202.3,629.7 -228.3,629.7 		"/>
		<polyline class="st0" points="-228.3,636.7 -202.3,636.7 -202.3,639.7 -228.3,639.7 		"/>
	</g>
	<g>
		<rect x="-228.3" y="646.7" class="st4" width="26" height="3"/>
		<polyline class="st4" points="-228.3,656.7 -202.3,656.7 -202.3,659.7 -228.3,659.7 		"/>
		<polyline class="st4" points="-228.3,666.7 -202.3,666.7 -202.3,669.7 -228.3,669.7 		"/>
	</g>
	<polyline class="st4" points="-165.5,645.9 -143,667.9 -145.1,670 -167.6,648 	"/>
	<polyline class="st4" points="-167.6,667.9 -145.1,645.9 -143,648 -165.5,670 	"/>
	<polyline class="st0" points="-165.5,615.9 -143,637.9 -145.1,640 -167.6,618 	"/>
	<polyline class="st0" points="-167.6,637.9 -145.1,615.9 -143,618 -165.5,640 	"/>
	<polygon class="st0" points="-118.3,625.9 -128.5,615.9 -130.6,618 -120.4,628 -130.6,637.9 -128.5,640 -118.3,630 -116.2,628 	"/>
	<polygon class="st4" points="-118.3,655.9 -128.5,645.9 -130.6,648 -120.4,658 -130.6,667.9 -128.5,670 -118.3,660 -116.2,658 	"/>
	<polygon class="st0" points="-89.1,626.2 -97.7,617.7 -99.5,619.5 -90.9,628 -99.5,636.4 -97.7,638.2 -89.1,629.7 -87.3,628 	"/>
	<polygon class="st4" points="-89.1,656.2 -97.7,647.7 -99.5,649.5 -90.9,658 -99.5,666.4 -97.7,668.2 -89.1,659.7 -87.3,658 	"/>
</g>
</svg>
