<?xml version="1.0" encoding="utf-8"?>
<!-- Generator: Adobe Illustrator 19.0.1, SVG Export Plug-In . SVG Version: 6.00 Build 0)  -->
<svg version="1.1" xmlns="http://www.w3.org/2000/svg" xmlns:xlink="http://www.w3.org/1999/xlink" x="0px" y="0px"
	 viewBox="-17 -28 330 120" style="enable-background:new -17 -28 330 120;" xml:space="preserve">
<style type="text/css">
	.st0{fill:#A1A1A1;}
	.st1{fill:#3A5A98;}
	.st2{fill:#2CA8DF;}
	.st3{fill:#EA1F27;}
	.st4{fill:#00328D;}
	.st5{fill:#2E2E2E;}
	.st6{display:none;}
	.st7{display:inline;}
	.st8{fill:none;stroke:#000000;stroke-miterlimit:10;}
</style>
<g id="Layer_3">
	<g>
		<path class="st0" d="M91.3-12.8h-2.1v7.6h-3.3v-7.6h-1.6v-2.8h1.6v-2.3c0,0,0.1-2.5,2.9-2.5s2.6,0,2.6,0v2.6h-1.7
			c0,0-0.6-0.1-0.6,0.6v1.7h2.5L91.3-12.8z"/>
		<path class="st0" d="M124.1-15.4c0,0.1,0,0.3,0,0.4c0,4.2-3.2,9-8.9,9c-1.8,0-3.5-0.5-4.8-1.5c0.2,0,0.5,0,0.7,0
			c1.5,0,2.8-0.5,3.9-1.4c-1.4,0-2.5-0.9-2.9-2.2c0.2,0,0.4,0.1,0.6,0.1c0.3,0,0.5,0,0.8-0.1c-1.5-0.3-2.5-1.6-2.5-3.1l0,0
			c0.4,0.2,0.9,0.4,1.5,0.4c-0.8-0.5-1.4-1.6-1.4-2.6c0-0.6,0.1-1.2,0.4-1.6c1.6,1.9,3.9,3.1,6.5,3.4c-0.1-0.2-0.1-0.5-0.1-0.7
			c0-1.8,1.4-3.1,3.2-3.1c0.9,0,1.7,0.4,2.3,1c0.7-0.1,1.4-0.4,2-0.7c-0.2,0.7-0.7,1.4-1.4,1.8c0.6-0.1,1.3-0.2,1.8-0.5
			C125.2-16.3,124.7-15.8,124.1-15.4z"/>
		<path class="st0" d="M156.3-16.4c-0.2-0.9-0.9-1.6-1.9-1.7c-2.1-0.2-4.3-0.2-6.5-0.2c-2.2,0-4.3,0-6.5,0.2
			c-0.9,0.1-1.7,0.7-1.9,1.7c-0.3,1.3-0.3,2.7-0.3,4.1s0,2.7,0.3,4.1c0.2,0.9,0.9,1.6,1.9,1.7c2.1,0.2,4.3,0.2,6.5,0.2
			c2.2,0,4.3,0,6.5-0.2c0.9-0.1,1.7-0.7,1.9-1.7c0.3-1.3,0.3-2.7,0.3-4.1S156.6-15,156.3-16.4z M145.7-9.6v-5.7
			c1.8,0.9,3.7,1.9,5.5,2.8C149.4-11.5,147.6-10.5,145.7-9.6z"/>
		<path class="st0" d="M187.2-6l-4.2-4.2c0.9-1.3,1.5-2.9,1.5-4.6c0-4.4-3.6-8.1-8.1-8.1c-4.4,0-8.1,3.6-8.1,8.1
			c0,4.4,3.6,8.1,8.1,8.1c1.7,0,3.3-0.5,4.6-1.5l4.2,4.2c0.3,0.3,0.6,0.4,0.9,0.4s0.7-0.1,0.9-0.4C187.8-4.6,187.8-5.4,187.2-6z
			 M176.4-9.1c-3.1,0-5.8-2.5-5.8-5.8c0-3.2,2.5-5.8,5.8-5.8c3.2,0,5.8,2.5,5.8,5.8S179.6-9.1,176.4-9.1z"/>
		<g>
			<path class="st0" d="M2.6-15.1v-2.1c0-2.6-2.1-4.6-4.6-4.6c-2.6,0-4.6,2.1-4.6,4.6v2.1h-1v8.4H3.5v-8.4H2.6z M-1.2-8.9h-1.5
				l0.2-2.4C-2.8-11.5-3-11.8-3-12.2c0-0.6,0.5-1,1-1c0.6,0,1,0.4,1,1c0,0.4-0.2,0.7-0.5,0.9L-1.2-8.9z M0.9-15.1h-5.8v-2.1
				c0-1.5,1.2-2.9,2.9-2.9c1.5,0,2.9,1.2,2.9,2.9V-15.1z"/>
		</g>
		<path class="st0" d="M-1.2-9.1"/>
		<path class="st1" d="M91.3,17.2h-2.1v7.6h-3.3v-7.6h-1.6v-2.8h1.6v-2.3c0,0,0.1-2.5,2.9-2.5s2.6,0,2.6,0v2.6h-1.7
			c0,0-0.6-0.1-0.6,0.6v1.7h2.5L91.3,17.2z"/>
		<path class="st2" d="M124.1,14.6c0,0.1,0,0.3,0,0.4c0,4.2-3.2,9-8.9,9c-1.8,0-3.5-0.5-4.8-1.5c0.2,0,0.5,0,0.7,0
			c1.5,0,2.8-0.5,3.9-1.4c-1.4,0-2.5-0.9-2.9-2.2c0.2,0,0.4,0.1,0.6,0.1c0.3,0,0.5,0,0.8-0.1c-1.5-0.3-2.5-1.6-2.5-3.1l0,0
			c0.4,0.2,0.9,0.4,1.5,0.4c-0.8-0.5-1.4-1.6-1.4-2.6c0-0.6,0.1-1.2,0.4-1.6c1.6,1.9,3.9,3.1,6.5,3.4c-0.1-0.2-0.1-0.5-0.1-0.7
			c0-1.8,1.4-3.1,3.2-3.1c0.9,0,1.7,0.4,2.3,1c0.7-0.1,1.4-0.4,2-0.7c-0.2,0.7-0.7,1.4-1.4,1.8c0.6-0.1,1.3-0.2,1.8-0.5
			C125.2,13.7,124.7,14.2,124.1,14.6z"/>
		<path class="st3" d="M156.3,13.6c-0.2-0.9-0.9-1.6-1.9-1.7c-2.1-0.2-4.3-0.2-6.5-0.2c-2.2,0-4.3,0-6.5,0.2
			c-0.9,0.1-1.7,0.7-1.9,1.7c-0.3,1.3-0.3,2.7-0.3,4.1s0,2.7,0.3,4.1c0.2,0.9,0.9,1.6,1.9,1.7c2.1,0.2,4.3,0.2,6.5,0.2
			c2.2,0,4.3,0,6.5-0.2c0.9-0.1,1.7-0.7,1.9-1.7c0.3-1.3,0.3-2.7,0.3-4.1S156.6,15,156.3,13.6z M145.7,20.4v-5.7
			c1.8,0.9,3.7,1.9,5.5,2.8C149.4,18.5,147.6,19.5,145.7,20.4z"/>
		<path class="st4" d="M187.2,24l-4.2-4.2c0.9-1.3,1.5-2.9,1.5-4.6c0-4.4-3.6-8.1-8.1-8.1c-4.4,0-8.1,3.6-8.1,8.1
			c0,4.4,3.6,8.1,8.1,8.1c1.7,0,3.3-0.5,4.6-1.5l4.2,4.2c0.3,0.3,0.6,0.4,0.9,0.4s0.7-0.1,0.9-0.4C187.8,25.4,187.8,24.6,187.2,24z
			 M176.4,20.9c-3.1,0-5.8-2.5-5.8-5.8c0-3.2,2.5-5.8,5.8-5.8c3.2,0,5.8,2.5,5.8,5.8S179.6,20.9,176.4,20.9z"/>
		<path class="st5" d="M-1.2,20.9"/>
		<path class="st4" d="M2.6,14.9v-2.1c0-2.6-2.1-4.6-4.6-4.6c-2.6,0-4.6,2.1-4.6,4.6v2.1h-1v8.4H3.5v-8.4H2.6z M-1.2,21.1h-1.5
			l0.2-2.4C-2.8,18.5-3,18.2-3,17.8c0-0.6,0.5-1,1-1c0.6,0,1,0.4,1,1c0,0.4-0.2,0.7-0.5,0.9L-1.2,21.1z M0.9,14.9h-5.8v-2.1
			c0-1.5,1.2-2.9,2.9-2.9c1.5,0,2.9,1.2,2.9,2.9V14.9z"/>
		<path class="st0" d="M39.4,55.9l-5.3-5.3C35.3,49,36,47,36,44.8c0-5.5-4.5-10.2-10.2-10.2c-5.5,0-10.2,4.5-10.2,10.2
			c0,5.5,4.5,10.2,10.2,10.2c2.1,0,4.2-0.6,5.8-1.9l5.3,5.3c0.4,0.4,0.8,0.5,1.1,0.5s0.9-0.1,1.1-0.5C40.2,57.7,40.2,56.7,39.4,55.9
			z M25.8,52c-3.9,0-7.3-3.1-7.3-7.3c0-4,3.1-7.3,7.3-7.3c4,0,7.3,3.1,7.3,7.3S29.9,52,25.8,52z"/>
		<path class="st4" d="M39.4,85.9l-5.3-5.3C35.3,79,36,77,36,74.8c0-5.5-4.5-10.2-10.2-10.2c-5.5,0-10.2,4.5-10.2,10.2
			c0,5.5,4.5,10.2,10.2,10.2c2.1,0,4.2-0.6,5.8-1.9l5.3,5.3c0.4,0.4,0.8,0.5,1.1,0.5s0.9-0.1,1.1-0.5C40.2,87.7,40.2,86.7,39.4,85.9
			z M25.8,82c-3.9,0-7.3-3.1-7.3-7.3c0-4,3.1-7.3,7.3-7.3c4,0,7.3,3.1,7.3,7.3S29.9,82,25.8,82z"/>
		<g>
			<rect x="-15.3" y="35.7" class="st0" width="26" height="3"/>
			<polyline class="st0" points="-15.3,45.7 10.7,45.7 10.7,48.7 -15.3,48.7 			"/>
			<polyline class="st0" points="-15.3,55.7 10.7,55.7 10.7,58.7 -15.3,58.7 			"/>
		</g>
		<g>
			<rect x="-15.3" y="65.7" class="st4" width="26" height="3"/>
			<polyline class="st4" points="-15.3,75.7 10.7,75.7 10.7,78.7 -15.3,78.7 			"/>
			<polyline class="st4" points="-15.3,85.7 10.7,85.7 10.7,88.7 -15.3,88.7 			"/>
		</g>
	</g>
</g>
<g id="Layer_2" class="st6">
	<g id="Layer_2_1_" class="st7">
		<rect x="-17" y="-28" class="st8" width="30" height="30"/>
		<rect x="13" y="-28" class="st8" width="30" height="30"/>
		<rect x="43" y="-28" class="st8" width="30" height="30"/>
		<rect x="73" y="-28" class="st8" width="30" height="30"/>
		<rect x="103" y="-28" class="st8" width="30" height="30"/>
		<rect x="133" y="-28" class="st8" width="30" height="30"/>
		<rect x="163" y="-28" class="st8" width="30" height="30"/>
		<rect x="193" y="-28" class="st8" width="30" height="30"/>
		<rect x="-17" y="2" class="st8" width="30" height="30"/>
		<rect x="13" y="2" class="st8" width="30" height="30"/>
		<rect x="43" y="2" class="st8" width="30" height="30"/>
		<rect x="73" y="2" class="st8" width="30" height="30"/>
		<rect x="103" y="2" class="st8" width="30" height="30"/>
		<rect x="133" y="2" class="st8" width="30" height="30"/>
		<rect x="163" y="2" class="st8" width="30" height="30"/>
		<rect x="193" y="2" class="st8" width="30" height="30"/>
		<rect x="-17" y="32" class="st8" width="30" height="30"/>
		<rect x="13" y="32" class="st8" width="30" height="30"/>
		<rect x="43" y="32" class="st8" width="30" height="30"/>
		<rect x="73" y="32" class="st8" width="30" height="30"/>
		<rect x="103" y="32" class="st8" width="30" height="30"/>
		<rect x="133" y="32" class="st8" width="30" height="30"/>
		<rect x="163" y="32" class="st8" width="30" height="30"/>
		<rect x="193" y="32" class="st8" width="30" height="30"/>
		<rect x="-17" y="62" class="st8" width="30" height="30"/>
		<rect x="13" y="62" class="st8" width="30" height="30"/>
		<rect x="43" y="62" class="st8" width="30" height="30"/>
		<rect x="73" y="62" class="st8" width="30" height="30"/>
		<rect x="103" y="62" class="st8" width="30" height="30"/>
		<rect x="133" y="62" class="st8" width="30" height="30"/>
		<rect x="163" y="62" class="st8" width="30" height="30"/>
		<rect x="193" y="62" class="st8" width="30" height="30"/>
		<rect x="223" y="-28" class="st8" width="30" height="30"/>
		<rect x="253" y="-28" class="st8" width="30" height="30"/>
		<rect x="283" y="-28" class="st8" width="30" height="30"/>
		<rect x="223" y="2" class="st8" width="30" height="30"/>
		<rect x="253" y="2" class="st8" width="30" height="30"/>
		<rect x="283" y="2" class="st8" width="30" height="30"/>
		<rect x="223" y="32" class="st8" width="30" height="30"/>
		<rect x="253" y="32" class="st8" width="30" height="30"/>
		<rect x="283" y="32" class="st8" width="30" height="30"/>
		<rect x="223" y="62" class="st8" width="30" height="30"/>
		<rect x="253" y="62" class="st8" width="30" height="30"/>
		<rect x="283" y="62" class="st8" width="30" height="30"/>
	</g>
</g>
</svg>
