<?xml version="1.0" encoding="utf-8"?>
<!-- Generator: Adobe Illustrator 19.0.1, SVG Export Plug-In . SVG Version: 6.00 Build 0)  -->
<svg version="1.1" id="Layer_1" xmlns="http://www.w3.org/2000/svg" xmlns:xlink="http://www.w3.org/1999/xlink" x="0px" y="0px"
	 viewBox="-140 337 330 120" style="enable-background:new -140 337 330 120;" xml:space="preserve">
<style type="text/css">
	.st0{fill:#A1A1A1;}
	.st1{fill:#3A5A98;}
	.st2{fill:#2CA8DF;}
	.st3{fill:#EA1F27;}
	.st4{fill:#00328D;}
	.st5{fill:#2E2E2E;}
	.st6{display:none;}
	.st7{display:inline;fill:none;stroke:#000000;stroke-miterlimit:10;}
</style>
<path class="st0" d="M-31.7,352.2h-2.1v7.6h-3.3v-7.6h-1.6v-2.8h1.6v-2.3c0,0,0.1-2.5,2.9-2.5c2.8,0,2.6,0,2.6,0v2.6h-1.7
	c0,0-0.6-0.1-0.6,0.6v1.7h2.5L-31.7,352.2z"/>
<path class="st0" d="M1.1,349.6c0,0.1,0,0.3,0,0.4c0,4.2-3.2,9-8.9,9c-1.8,0-3.5-0.5-4.8-1.5c0.2,0,0.5,0,0.7,0
	c1.5,0,2.8-0.5,3.9-1.4c-1.4,0-2.5-0.9-2.9-2.2c0.2,0,0.4,0.1,0.6,0.1c0.3,0,0.5,0,0.8-0.1c-1.5-0.3-2.5-1.6-2.5-3.1l0,0
	c0.4,0.2,0.9,0.4,1.5,0.4c-0.8-0.5-1.4-1.6-1.4-2.6c0-0.6,0.1-1.2,0.4-1.6c1.6,1.9,3.9,3.1,6.5,3.4c-0.1-0.2-0.1-0.5-0.1-0.7
	c0-1.8,1.4-3.1,3.2-3.1c0.9,0,1.7,0.4,2.3,1c0.7-0.1,1.4-0.4,2-0.7c-0.2,0.7-0.7,1.4-1.4,1.8c0.6-0.1,1.3-0.2,1.8-0.5
	C2.2,348.7,1.7,349.2,1.1,349.6z"/>
<path class="st0" d="M33.3,348.6c-0.2-0.9-0.9-1.6-1.9-1.7c-2.1-0.2-4.3-0.2-6.5-0.2s-4.3,0-6.5,0.2c-0.9,0.1-1.7,0.7-1.9,1.7
	c-0.3,1.3-0.3,2.7-0.3,4.1s0,2.7,0.3,4.1c0.2,0.9,0.9,1.6,1.9,1.7c2.1,0.2,4.3,0.2,6.5,0.2s4.3,0,6.5-0.2c0.9-0.1,1.7-0.7,1.9-1.7
	c0.3-1.3,0.3-2.7,0.3-4.1S33.6,350,33.3,348.6z M22.7,355.4v-5.7c1.8,0.9,3.7,1.9,5.5,2.8C26.4,353.5,24.6,354.5,22.7,355.4z"/>
<path class="st0" d="M64.2,359l-4.2-4.2c0.9-1.3,1.5-2.9,1.5-4.6c0-4.4-3.6-8.1-8.1-8.1c-4.4,0-8.1,3.6-8.1,8.1
	c0,4.4,3.6,8.1,8.1,8.1c1.7,0,3.3-0.5,4.6-1.5l4.2,4.2c0.3,0.3,0.6,0.4,0.9,0.4s0.7-0.1,0.9-0.4C64.8,360.4,64.8,359.6,64.2,359z
	 M53.4,355.9c-3.1,0-5.8-2.5-5.8-5.8c0-3.2,2.5-5.8,5.8-5.8c3.2,0,5.8,2.5,5.8,5.8C59.2,353.4,56.6,355.9,53.4,355.9z"/>
<g>
	<path class="st0" d="M-120.4,349.9v-2.1c0-2.6-2.1-4.6-4.6-4.6c-2.6,0-4.6,2.1-4.6,4.6v2.1h-1v8.4h11.1v-8.4H-120.4z M-124.2,356.1
		h-1.5l0.2-2.4c-0.3-0.2-0.5-0.5-0.5-0.9c0-0.6,0.5-1,1-1c0.6,0,1,0.4,1,1c0,0.4-0.2,0.7-0.5,0.9L-124.2,356.1z M-122.1,349.9h-5.8
		v-2.1c0-1.5,1.2-2.9,2.9-2.9c1.5,0,2.9,1.2,2.9,2.9C-122.1,347.8-122.1,349.9-122.1,349.9z"/>
</g>
<path class="st0" d="M-124.2,355.9"/>
<path class="st1" d="M-31.7,382.2h-2.1v7.6h-3.3v-7.6h-1.6v-2.8h1.6v-2.3c0,0,0.1-2.5,2.9-2.5c2.8,0,2.6,0,2.6,0v2.6h-1.7
	c0,0-0.6-0.1-0.6,0.6v1.7h2.5L-31.7,382.2z"/>
<path class="st2" d="M1.1,379.6c0,0.1,0,0.3,0,0.4c0,4.2-3.2,9-8.9,9c-1.8,0-3.5-0.5-4.8-1.5c0.2,0,0.5,0,0.7,0
	c1.5,0,2.8-0.5,3.9-1.4c-1.4,0-2.5-0.9-2.9-2.2c0.2,0,0.4,0.1,0.6,0.1c0.3,0,0.5,0,0.8-0.1c-1.5-0.3-2.5-1.6-2.5-3.1l0,0
	c0.4,0.2,0.9,0.4,1.5,0.4c-0.8-0.5-1.4-1.6-1.4-2.6c0-0.6,0.1-1.2,0.4-1.6c1.6,1.9,3.9,3.1,6.5,3.4c-0.1-0.2-0.1-0.5-0.1-0.7
	c0-1.8,1.4-3.1,3.2-3.1c0.9,0,1.7,0.4,2.3,1c0.7-0.1,1.4-0.4,2-0.7c-0.2,0.7-0.7,1.4-1.4,1.8c0.6-0.1,1.3-0.2,1.8-0.5
	C2.2,378.7,1.7,379.2,1.1,379.6z"/>
<path class="st3" d="M33.3,378.6c-0.2-0.9-0.9-1.6-1.9-1.7c-2.1-0.2-4.3-0.2-6.5-0.2s-4.3,0-6.5,0.2c-0.9,0.1-1.7,0.7-1.9,1.7
	c-0.3,1.3-0.3,2.7-0.3,4.1s0,2.7,0.3,4.1c0.2,0.9,0.9,1.6,1.9,1.7c2.1,0.2,4.3,0.2,6.5,0.2s4.3,0,6.5-0.2c0.9-0.1,1.7-0.7,1.9-1.7
	c0.3-1.3,0.3-2.7,0.3-4.1S33.6,380,33.3,378.6z M22.7,385.4v-5.7c1.8,0.9,3.7,1.9,5.5,2.8C26.4,383.5,24.6,384.5,22.7,385.4z"/>
<path class="st4" d="M64.2,389l-4.2-4.2c0.9-1.3,1.5-2.9,1.5-4.6c0-4.4-3.6-8.1-8.1-8.1c-4.4,0-8.1,3.6-8.1,8.1
	c0,4.4,3.6,8.1,8.1,8.1c1.7,0,3.3-0.5,4.6-1.5l4.2,4.2c0.3,0.3,0.6,0.4,0.9,0.4s0.7-0.1,0.9-0.4C64.8,390.4,64.8,389.6,64.2,389z
	 M53.4,385.9c-3.1,0-5.8-2.5-5.8-5.8c0-3.2,2.5-5.8,5.8-5.8c3.2,0,5.8,2.5,5.8,5.8C59.2,383.4,56.6,385.9,53.4,385.9z"/>
<path class="st5" d="M-124.2,385.9"/>
<path class="st4" d="M-120.4,379.9v-2.1c0-2.6-2.1-4.6-4.6-4.6c-2.6,0-4.6,2.1-4.6,4.6v2.1h-1v8.4h11.1v-8.4H-120.4z M-124.2,386.1
	h-1.5l0.2-2.4c-0.3-0.2-0.5-0.5-0.5-0.9c0-0.6,0.5-1,1-1c0.6,0,1,0.4,1,1c0,0.4-0.2,0.7-0.5,0.9L-124.2,386.1z M-122.1,379.9h-5.8
	v-2.1c0-1.5,1.2-2.9,2.9-2.9c1.5,0,2.9,1.2,2.9,2.9C-122.1,377.8-122.1,379.9-122.1,379.9z"/>
<g id="Layer_2_1_" class="st6">
	<rect x="-140" y="337" class="st7" width="30" height="30"/>
	<rect x="-110" y="337" class="st7" width="30" height="30"/>
	<rect x="-80" y="337" class="st7" width="30" height="30"/>
	<rect x="-50" y="337" class="st7" width="30" height="30"/>
	<rect x="-20" y="337" class="st7" width="30" height="30"/>
	<rect x="10" y="337" class="st7" width="30" height="30"/>
	<rect x="40" y="337" class="st7" width="30" height="30"/>
	<rect x="70" y="337" class="st7" width="30" height="30"/>
	<rect x="-140" y="367" class="st7" width="30" height="30"/>
	<rect x="-110" y="367" class="st7" width="30" height="30"/>
	<rect x="-80" y="367" class="st7" width="30" height="30"/>
	<rect x="-50" y="367" class="st7" width="30" height="30"/>
	<rect x="-20" y="367" class="st7" width="30" height="30"/>
	<rect x="10" y="367" class="st7" width="30" height="30"/>
	<rect x="40" y="367" class="st7" width="30" height="30"/>
	<rect x="70" y="367" class="st7" width="30" height="30"/>
	<rect x="-140" y="397" class="st7" width="30" height="30"/>
	<rect x="-110" y="397" class="st7" width="30" height="30"/>
	<rect x="-80" y="397" class="st7" width="30" height="30"/>
	<rect x="-50" y="397" class="st7" width="30" height="30"/>
	<rect x="-20" y="397" class="st7" width="30" height="30"/>
	<rect x="10" y="397" class="st7" width="30" height="30"/>
	<rect x="40" y="397" class="st7" width="30" height="30"/>
	<rect x="70" y="397" class="st7" width="30" height="30"/>
	<rect x="-140" y="427" class="st7" width="30" height="30"/>
	<rect x="-110" y="427" class="st7" width="30" height="30"/>
	<rect x="-80" y="427" class="st7" width="30" height="30"/>
	<rect x="-50" y="427" class="st7" width="30" height="30"/>
	<rect x="-20" y="427" class="st7" width="30" height="30"/>
	<rect x="10" y="427" class="st7" width="30" height="30"/>
	<rect x="40" y="427" class="st7" width="30" height="30"/>
	<rect x="70" y="427" class="st7" width="30" height="30"/>
	<rect x="100" y="337" class="st7" width="30" height="30"/>
	<rect x="130" y="337" class="st7" width="30" height="30"/>
	<rect x="160" y="337" class="st7" width="30" height="30"/>
	<rect x="100" y="367" class="st7" width="30" height="30"/>
	<rect x="130" y="367" class="st7" width="30" height="30"/>
	<rect x="160" y="367" class="st7" width="30" height="30"/>
	<rect x="100" y="397" class="st7" width="30" height="30"/>
	<rect x="130" y="397" class="st7" width="30" height="30"/>
	<rect x="160" y="397" class="st7" width="30" height="30"/>
	<rect x="100" y="427" class="st7" width="30" height="30"/>
	<rect x="130" y="427" class="st7" width="30" height="30"/>
	<rect x="160" y="427" class="st7" width="30" height="30"/>
</g>
</svg>
