<?xml version="1.0" encoding="utf-8"?>
<!-- Generator: Adobe Illustrator 19.0.1, SVG Export Plug-In . SVG Version: 6.00 Build 0)  -->
<svg version="1.1" id="Layer_2" xmlns="http://www.w3.org/2000/svg" xmlns:xlink="http://www.w3.org/1999/xlink" x="0px" y="0px"
	 viewBox="-213 580 365 65" style="enable-background:new -213 580 365 65;" xml:space="preserve">
<style type="text/css">
	.st0{fill:#FFFFFF;}
	.st1{fill:#253D85;}
	.st2{fill:#B61F36;}
	.st3{fill:none;}
</style>
<g>
	<g>
		<g>
			<polygon class="st0" points="121,588 127.1,606.9 147,606.9 130.9,618.5 137,637.4 121,625.7 105,637.4 111.1,618.5 95.1,606.9 
				114.9,606.9 			"/>
			<g>
				<path class="st1" d="M121,593.7L121,593.7V588l-2.3,7.1C119.3,594.3,120.1,593.7,121,593.7z"/>
				<path class="st2" d="M122.7,604.2c0-0.2,0-0.5,0.1-0.7h-3.6v1.4h3.6C122.7,604.6,122.7,604.4,122.7,604.2z"/>
				<path class="st1" d="M118.8,627.3c-0.1-0.1-0.2-0.3-0.3-0.4c-1.1-2.2-2.9-6.1-2.9-11.4c0-6.7,3.6-9.3,3.6-11.3
					c0-2.1-1.4-4.3-1.4-6.7v-0.1l-3.1,9.5H94.9l16,11.7l-5.9,18.8L118.8,627.3z"/>
			</g>
			<g>
				<path class="st2" d="M131.5,620.4h-5.7c-0.3,1.3-0.6,2.4-1,3.4h7.8L131.5,620.4z"/>
				<path class="st2" d="M123.3,595.2L121,588v5.7C121.9,593.7,122.8,594.3,123.3,595.2z"/>
				<path class="st2" d="M122.7,603.5h3.3l-1.1-3.4h-1.3C123.3,601.2,122.9,602.4,122.7,603.5z"/>
				<path class="st2" d="M133.7,627.2h-10.5l-0.1,0.1l4.5,3.3h7.1L133.7,627.2z"/>
				<polygon class="st2" points="132.4,634 137,637.4 135.9,634 				"/>
				<path class="st2" d="M127.1,606.9h-3.3c0.5,0.9,1.1,2,1.6,3.4h16.8l4.7-3.4H127.1z"/>
				<path class="st2" d="M126.3,615.5c0,0.5,0,1.1-0.1,1.6h6.7l4.7-3.4h-11.4C126.3,614.2,126.3,614.8,126.3,615.5z"/>
			</g>
		</g>
	</g>
</g>
<g>
	<path class="st1" d="M139.4,637.4c-0.6,0-1.2-0.5-1.2-1.2s0.6-1.2,1.2-1.2c0.7,0,1.3,0.6,1.2,1.3
		C140.7,636.8,140.1,637.4,139.4,637.4z M139.4,635c-0.6,0-1.1,0.5-1.1,1.1c0,0.6,0.5,1.1,1.1,1.1s1.1-0.5,1.1-1.1
		C140.6,635.5,140.1,635,139.4,635z M139.4,635.3c0.1,0,0.3,0,0.4,0c0.2,0.1,0.3,0.2,0.3,0.4s-0.2,0.3-0.3,0.4
		c0.1,0.1,0.1,0.1,0.2,0.3c0,0.2,0.1,0.4,0.1,0.5h-0.4c0-0.1-0.1-0.2-0.1-0.3c0-0.3-0.1-0.3-0.3-0.3h-0.1v0.7h-0.4v-1.6h0.6V635.3z
		 M139.2,635.9h0.2c0.1,0,0.2,0,0.2,0l0.1-0.1c0-0.1,0-0.1-0.1-0.1c0,0-0.1,0-0.3,0h-0.1L139.2,635.9L139.2,635.9z"/>
</g>
<g>
	<g>
		<path class="st3" d="M-187,620c-0.8-0.2-1.8-0.2-3.9-0.2h-2.1l-2,4.4h1.9c1.6,0,3.6,0,5.1-0.4c2.4-0.5,3-1.7,3-2.3
			C-185.1,620.4-186.8,620-187,620z"/>
		<path class="st3" d="M-184.2,612.1c-0.9-0.2-1.9-0.2-3.8-0.2h-1.4l-2,4.1h1.3c1.7,0,3.3,0,4.9-0.4c1.6-0.4,2.7-1.3,2.7-2.2
			C-182.5,613.2-182.5,612.5-184.2,612.1z"/>
		<path class="st3" d="M12.9,612c-1.3,0-3.7,0.3-5.6,1.9c-1.9,1.6-3.5,5-3.5,6.8c0,0.2,0,0.9,0.4,1.4c1.1,1.7,4.3,1.7,4.7,1.7
			c5.7,0,7.6-4.2,8.4-6.6c0.3-0.7,0.5-1.5,0.5-2.2C17.8,614.2,17.5,612,12.9,612z"/>
		<path class="st3" d="M-153.3,609.8c-4.6,0-8.3,3.7-8.3,8.3c0,4.6,3.7,8.3,8.3,8.3c4.6,0,8.3-3.7,8.3-8.3
			C-145,613.5-148.7,609.8-153.3,609.8z M-153.9,611.5c0.3-0.5,1-0.6,1.6-0.3s0.9,1,0.6,1.5c-0.3,0.5-1,0.6-1.6,0.3
			S-154.2,612-153.9,611.5z M-151.2,615.9c-0.3,0.5-1,0.6-1.6,0.3c-0.6-0.3-0.9-1-0.6-1.5c0.3-0.5,1-0.6,1.6-0.3
			C-151.2,614.7-150.9,615.4-151.2,615.9z M-148.1,614.6c-0.3,0.5-1,0.6-1.6,0.3c-0.6-0.3-0.9-1-0.6-1.5c0.3-0.5,1-0.6,1.6-0.3
			C-148.1,613.5-147.8,614.1-148.1,614.6z"/>
		
			<ellipse transform="matrix(0.4724 -0.8814 0.8814 0.4724 -620.1035 188.2841)" class="st1" cx="-152.8" cy="612.1" rx="1" ry="1.3"/>
		
			<ellipse transform="matrix(-0.8812 -0.4728 0.4728 -0.8812 -571.0468 1084.4685)" class="st1" cx="-149.2" cy="614" rx="1.3" ry="1"/>
		<path class="st1" d="M-151.8,614.4c-0.6-0.3-1.3-0.2-1.6,0.3c-0.3,0.5,0,1.2,0.6,1.5c0.6,0.3,1.3,0.2,1.6-0.3
			S-151.2,614.7-151.8,614.4z"/>
		<path class="st1" d="M-77.2,623.4h-1.3l2.5-5.2l2-4.1l2.9-5.6l-0.3-0.2l-10.4,0.1l-0.1-0.1l-9.7,0.1l-0.4,0.2
			c-1.7,2.3-2.5,3.2-4.5,5.7l-6.2,7.6l0.4-6l0.2-2.9l0.3-4.5l-0.4-0.2l-11.9,0.1l-0.5,0.1c-1.2,1.7-1.7,2.3-3.5,4.6l-6.9,8.7
			l0.4-5.6l0.3-3.9l0.2-3.9l-0.3-0.1l-11.4,0.2l-0.4,0.2c0.2,1.3,0.2,2,0.3,3.7c-0.6-0.8-1.5-1.6-2.9-2.3c-3-1.6-8-2-12-2
			c-5.4,0-9.8,0.6-13.1,1.9c-7.7,3-8.8,8.6-8.7,10.4c0,0.1,0,0.2,0,0.4c-0.3-1.4-1.9-2.3-2.9-2.7c-0.9-0.4-2-0.5-3.1-0.7
			c0.9-0.2,1.9-0.3,2.8-0.5c2.3-0.7,5.2-2.1,5.2-4.2c0-2.4-3.1-3.8-8.6-4.2c-2.3-0.1-4.4-0.1-10.3-0.1l-5.6,0.1h-4.1l-0.3,0.2
			c-1.3,3.8-1.6,4.5-4.7,11.3l-1.6,3.5l-2.2,4.1l0.3,0.2l5.1-0.1h3.5c11.2,0,12.6,0,15.9-0.4c4.6-0.5,6.7-1.5,8-2.3
			c1.8-1.1,2.6-2.8,2.7-3.8c0.3,2.3,1.7,4.6,7.1,6c1.5,0.4,2.9,0.5,4.5,0.7c1.5,0.2,3.1,0.2,4.7,0.2c8.3,0,12.4-1.7,13.9-2.4
			c3.5-1.6,5.3-3.9,6.4-5.9c0.1-0.2,0.2-0.3,0.3-0.5l0.1,3.7l0.1,4.6l0.4,0.2c2.8-0.1,4.9-0.1,7.5-0.1c1.9,0,3.8,0,5.7,0l0.4-0.2
			l3.6-4.7l2.7-3.3l3.2-4l-0.6,8.7l-0.3,3.4l0.4,0.2c2.9-0.1,5.2-0.1,8.1-0.1c1.7,0,3.5,0,5.3,0l0.4-0.2c0.7-0.8,1.4-1.7,2.1-2.5
			c0.6-0.7,1.2-1.4,1.8-2l6.9-7.8c0.4-0.4,1.5-1.6,2.6-2.9c-0.3,0.6-0.6,1.4-1.1,2.3l-3.3,7.4l-2.6,5.5l0.2,0.2l11.1-0.1h13.6
			l0.4-0.2l2.3-4.1l-0.3-0.2C-69.7,623.4-70.9,623.4-77.2,623.4z M-188.1,623.8c-1.5,0.4-3.4,0.4-5.1,0.4h-1.9l2-4.4h2.1
			c2.1,0,3.1,0,3.9,0.2c0.3,0.1,1.9,0.5,1.9,1.5C-185.1,622.1-185.7,623.2-188.1,623.8z M-185.2,615.6c-1.6,0.4-3.2,0.4-4.9,0.4
			h-1.3l2-4.1h1.4c2,0,2.9,0,3.8,0.2c1.7,0.4,1.7,1.1,1.7,1.4C-182.5,614.4-183.6,615.2-185.2,615.6z M-153.3,626.4
			c-4.6,0-8.3-3.7-8.3-8.3c0-4.6,3.7-8.3,8.3-8.3c4.6,0,8.3,3.7,8.3,8.3C-145,622.7-148.7,626.4-153.3,626.4z"/>
		<path class="st1" d="M-16.6,623.7c-5.2,0-8.4-1.6-8.4-4.5c0-2.4,3.2-6.7,11.4-6.7c4.4,0,6.3,0.9,7.3,1.4l0.4-0.1l2.4-4.2l-0.2-0.2
			c-1.6-0.5-2.6-0.7-5.1-1c-2-0.2-4-0.4-6.1-0.4c-15.1,0-22,6-22,11.5c0,4.9,5.1,8.5,17.1,8.5c4.4,0,7-0.4,9.1-0.9l0.3-0.2
			c0.3-0.7,0.7-1.5,1-2.2c0.4-0.7,0.8-1.5,1.2-2.2l-0.4-0.1C-10.2,622.9-12.6,623.7-16.6,623.7z"/>
		<path class="st1" d="M77.1,608.4c-6.9,0.1-8.4,0.1-14.8,0.1l-0.4,0.2c-0.4,0.4-3,3.3-3.9,4.2l-6.9,7.3l-0.5-5.3l-0.2-2l-0.3-4.3
			l-0.3-0.2c-6.5,0.1-8.1,0.1-14.9,0.1l-0.3,0.2l-3.2,6l-1.9,3.6c0.3-0.8,0.5-1.6,0.5-2.5c0-1.7-0.7-3.9-4-5.7c-3-1.6-8-2-12-2
			c-5.4,0-9.8,0.6-13.1,1.9c-7.7,3-8.8,8.6-8.7,10.4c0,2.5,1.1,5.3,7.2,6.8c1.5,0.4,2.9,0.5,4.5,0.7c1.5,0.2,3.1,0.2,4.7,0.2
			c8.3,0,12.4-1.7,13.9-2.4c2.6-1.2,4.3-2.8,5.4-4.3l-0.2,0.3l-3.3,6l0.3,0.2c3.8-0.1,4.9-0.1,9-0.1l0.4-0.1l3.5-7.3l2.2-4.5
			l1.5-2.9l1,11.2l0.3,3.6L43,628l8.6-0.1l0.4-0.1l4.6-4.9l9.5-9.8l-2.7,6.6l-1.3,3.3l-1.9,4.9l0.3,0.2l10.4-0.1l0.4-0.1l1.6-5.5
			l2.4-7.3l2.1-6.1L77.1,608.4z M17.4,617.4c-0.8,2.3-2.7,6.6-8.4,6.6c-0.4,0-3.6,0-4.7-1.7c-0.4-0.5-0.4-1.2-0.4-1.4
			c0-1.8,1.6-5.2,3.5-6.8c1.9-1.6,4.3-1.9,5.6-1.9c4.6,0,5,2.2,5,3.1C17.8,615.9,17.6,616.6,17.4,617.4z"/>
	</g>
	<g>
		<g>
			<polygon class="st0" points="-50.3,595.1 -46.1,608 -32.4,608 -43.5,616 -39.3,629 -50.3,621 -61.3,629 -57.1,616 -68.1,608 
				-54.5,608 			"/>
			<g>
				<path class="st1" d="M-50.3,599L-50.3,599v-3.9l-1.6,4.9C-51.5,599.4-50.9,599-50.3,599z"/>
				<path class="st2" d="M-49.1,606.2c0-0.2,0-0.3,0-0.5h-2.4v0.9h2.5C-49.1,606.5-49.1,606.3-49.1,606.2z"/>
				<path class="st1" d="M-51.8,622.1c-0.1-0.1-0.1-0.2-0.2-0.3c-0.8-1.5-2-4.2-2-7.9c0-4.6,2.5-6.4,2.5-7.8c0-1.4-0.9-3-0.9-4.6
					v-0.1l-2.1,6.5h-13.6l11,8l-4.2,13L-51.8,622.1z"/>
			</g>
			<g>
				<path class="st2" d="M-43,617.4h-4c-0.2,0.9-0.4,1.6-0.7,2.3h5.4L-43,617.4z"/>
				<path class="st2" d="M-48.7,600l-1.6-4.9v3.9C-49.7,599-49.1,599.4-48.7,600z"/>
				<path class="st2" d="M-49.1,605.7h2.3l-0.8-2.3h-0.9C-48.7,604.2-49,605-49.1,605.7z"/>
				<path class="st2" d="M-41.5,622h-7.2c0,0,0,0-0.1,0.1l3.1,2.3h4.9L-41.5,622z"/>
				<polygon class="st2" points="-42.5,626.7 -39.3,629 -40,626.7 				"/>
				<path class="st2" d="M-46.1,608h-2.3c0.4,0.6,0.8,1.4,1.1,2.3h11.6l3.2-2.3H-46.1z"/>
				<path class="st2" d="M-46.6,614c0,0.4,0,0.7,0,1.1h4.6l3.2-2.3h-7.9C-46.7,613.1-46.6,613.5-46.6,614z"/>
			</g>
		</g>
	</g>
</g>
<g>
	<path class="st1" d="M-37.6,629c-0.4,0-0.9-0.3-0.9-0.9c0-0.5,0.4-0.9,0.9-0.9s0.9,0.4,0.9,0.9C-36.8,628.6-37.1,629-37.6,629z
		 M-37.6,627.4c-0.4,0-0.8,0.4-0.8,0.8c0,0.4,0.4,0.8,0.8,0.8c0.4,0,0.8-0.3,0.8-0.8S-37.2,627.4-37.6,627.4z M-37.6,627.6
		c0.1,0,0.2,0,0.3,0s0.2,0.2,0.2,0.3c0,0.2-0.1,0.2-0.2,0.3c0.1,0,0.1,0.1,0.1,0.2c0,0.1,0,0.2,0.1,0.3h-0.3c0-0.1,0-0.1-0.1-0.2
		c0-0.2,0-0.2-0.2-0.2l0,0v0.5H-38v-1.1h0.4V627.6z M-37.8,628h0.1c0.1,0,0.1,0,0.2,0v-0.1c0,0,0-0.1-0.1-0.1c0,0-0.1,0-0.2,0h-0.1
		v0.2H-37.8z"/>
</g>
</svg>
