<?xml version="1.0" encoding="utf-8"?>
<!-- Generator: Adobe Illustrator 19.0.1, SVG Export Plug-In . SVG Version: 6.00 Build 0)  -->
<svg version="1.1" id="Layer_2" xmlns="http://www.w3.org/2000/svg" xmlns:xlink="http://www.w3.org/1999/xlink" x="0px" y="0px"
	 viewBox="0 0 365 65" style="enable-background:new 0 0 365 65;" xml:space="preserve">
<style type="text/css">
	.st0{fill:#FFFFFF;}
	.st1{fill:#253D85;}
	.st2{fill:#B61F36;}
	.st3{fill:none;}
</style>
<g>
	<g>
		<g>
			<polygon class="st0" points="334,8 340.1,26.9 360,26.9 343.9,38.5 350,57.4 334,45.7 318,57.4 324.1,38.5 308.1,26.9 
				327.9,26.9 			"/>
			<g>
				<path class="st1" d="M334,13.7C334,13.7,334,13.7,334,13.7l0-5.7l-2.3,7.1C332.3,14.3,333.1,13.7,334,13.7z"/>
				<path class="st2" d="M335.7,24.2c0-0.2,0-0.5,0.1-0.7h-3.6v1.4h3.6C335.7,24.6,335.7,24.4,335.7,24.2z"/>
				<path class="st1" d="M331.8,47.3c-0.1-0.1-0.2-0.3-0.3-0.4c-1.1-2.2-2.9-6.1-2.9-11.4c0-6.7,3.6-9.3,3.6-11.3
					c0-2.1-1.4-4.3-1.4-6.7c0,0,0-0.1,0-0.1l-3.1,9.5h-19.8l16,11.7L318,57.4L331.8,47.3z"/>
			</g>
			<g>
				<path class="st2" d="M344.5,40.4h-5.7c-0.3,1.3-0.6,2.4-1,3.4h7.8L344.5,40.4z"/>
				<path class="st2" d="M336.3,15.2L334,8v5.7C334.9,13.7,335.8,14.3,336.3,15.2z"/>
				<path class="st2" d="M335.7,23.5h3.3l-1.1-3.4h-1.3C336.3,21.2,335.9,22.4,335.7,23.5z"/>
				<path class="st2" d="M346.7,47.2h-10.5c0,0-0.1,0.1-0.1,0.1l4.5,3.3h7.1L346.7,47.2z"/>
				<polygon class="st2" points="345.4,54 350,57.4 348.9,54 				"/>
				<path class="st2" d="M340.1,26.9h-3.3c0.5,0.9,1.1,2,1.6,3.4h16.8l4.7-3.4H340.1z"/>
				<path class="st2" d="M339.3,35.5c0,0.5,0,1.1-0.1,1.6h6.7l4.7-3.4h-11.4C339.3,34.2,339.3,34.8,339.3,35.5z"/>
			</g>
		</g>
	</g>
</g>
<g>
	<path class="st1" d="M352.4,57.4c-0.6,0-1.2-0.5-1.2-1.2c0-0.7,0.6-1.2,1.2-1.2c0.7,0,1.3,0.6,1.2,1.3
		C353.7,56.8,353.1,57.4,352.4,57.4z M352.4,55c-0.6,0-1.1,0.5-1.1,1.1c0,0.6,0.5,1.1,1.1,1.1c0.6,0,1.1-0.5,1.1-1.1
		C353.6,55.5,353.1,55,352.4,55z M352.4,55.3c0.1,0,0.3,0,0.4,0c0.2,0.1,0.3,0.2,0.3,0.4c0,0.2-0.2,0.3-0.3,0.4
		c0.1,0.1,0.1,0.1,0.2,0.3c0,0.2,0.1,0.4,0.1,0.5h-0.4c0-0.1-0.1-0.2-0.1-0.3c0-0.3-0.1-0.3-0.3-0.3h-0.1v0.7h-0.4v-1.6H352.4z
		 M352.2,55.9h0.2c0.1,0,0.2,0,0.2,0c0,0,0.1-0.1,0.1-0.1c0-0.1,0-0.1-0.1-0.1c0,0-0.1,0-0.3,0h-0.1V55.9z"/>
</g>
<g>
	<g>
		<path class="st3" d="M26,40c-0.8-0.2-1.8-0.2-3.9-0.2h-2.1l-2,4.4l1.9,0c1.6,0,3.6,0,5.1-0.4c2.4-0.5,3-1.7,3-2.3
			C27.9,40.4,26.2,40,26,40z"/>
		<path class="st3" d="M28.8,32.1c-0.9-0.2-1.9-0.2-3.8-0.2l-1.4,0l-2,4.1l1.3,0c1.7,0,3.3,0,4.9-0.4c1.6-0.4,2.7-1.3,2.7-2.2
			C30.5,33.2,30.5,32.5,28.8,32.1z"/>
		<path class="st3" d="M225.9,32c-1.3,0-3.7,0.3-5.6,1.9c-1.9,1.6-3.5,5-3.5,6.8c0,0.2,0,0.9,0.4,1.4c1.1,1.7,4.3,1.7,4.7,1.7
			c5.7,0,7.6-4.2,8.4-6.6c0.3-0.7,0.5-1.5,0.5-2.2C230.8,34.2,230.5,32,225.9,32z"/>
		<path class="st3" d="M59.7,29.8c-4.6,0-8.3,3.7-8.3,8.3c0,4.6,3.7,8.3,8.3,8.3c4.6,0,8.3-3.7,8.3-8.3C68,33.5,64.3,29.8,59.7,29.8
			z M59.1,31.5c0.3-0.5,1-0.6,1.6-0.3c0.6,0.3,0.9,1,0.6,1.5c-0.3,0.5-1,0.6-1.6,0.3C59.1,32.7,58.8,32,59.1,31.5z M61.8,35.9
			c-0.3,0.5-1,0.6-1.6,0.3c-0.6-0.3-0.9-1-0.6-1.5c0.3-0.5,1-0.6,1.6-0.3C61.8,34.7,62.1,35.4,61.8,35.9z M64.9,34.6
			c-0.3,0.5-1,0.6-1.6,0.3c-0.6-0.3-0.9-1-0.6-1.5c0.3-0.5,1-0.6,1.6-0.3C64.9,33.5,65.2,34.1,64.9,34.6z"/>
		<ellipse transform="matrix(0.8814 0.4724 -0.4724 0.8814 22.3201 -24.6356)" class="st1" cx="60.2" cy="32.1" rx="1.3" ry="1"/>
		<ellipse transform="matrix(0.4728 -0.8812 0.8812 0.4728 3.6284 74.1389)" class="st1" cx="63.8" cy="34" rx="1" ry="1.3"/>
		<path class="st1" d="M61.2,34.4c-0.6-0.3-1.3-0.2-1.6,0.3c-0.3,0.5,0,1.2,0.6,1.5c0.6,0.3,1.3,0.2,1.6-0.3
			C62.1,35.4,61.8,34.7,61.2,34.4z"/>
		<path class="st1" d="M135.8,43.4h-1.3l2.5-5.2l2-4.1l2.9-5.6l-0.3-0.2l-10.4,0.1l-0.1-0.1l-9.7,0.1l-0.4,0.2
			c-1.7,2.3-2.5,3.2-4.5,5.7l-6.2,7.6l0.4-6l0.2-2.9l0.3-4.5l-0.4-0.2l-11.9,0.1l-0.5,0.1c-1.2,1.7-1.7,2.3-3.5,4.6l-6.9,8.7
			l0.4-5.6l0.3-3.9l0.2-3.9l-0.3-0.1l-11.4,0.2l-0.4,0.2c0.2,1.3,0.2,2,0.3,3.7c-0.6-0.8-1.5-1.6-2.9-2.3c-3-1.6-8-2-12-2
			c-5.4,0-9.8,0.6-13.1,1.9c-7.7,3-8.8,8.6-8.7,10.4c0,0.1,0,0.2,0,0.4c-0.3-1.4-1.9-2.3-2.9-2.7c-0.9-0.4-2-0.5-3.1-0.7
			c0.9-0.2,1.9-0.3,2.8-0.5c2.3-0.7,5.2-2.1,5.2-4.2c0-2.4-3.1-3.8-8.6-4.2c-2.3-0.1-4.4-0.1-10.3-0.1l-5.6,0.1l-4.1,0l-0.3,0.2
			c-1.3,3.8-1.6,4.5-4.7,11.3l-1.6,3.5L5,47.6l0.3,0.2l5.1-0.1h3.5c11.2,0,12.6,0,15.9-0.4c4.6-0.5,6.7-1.5,8-2.3
			c1.8-1.1,2.6-2.8,2.7-3.8c0.3,2.3,1.7,4.6,7.1,6c1.5,0.4,2.9,0.5,4.5,0.7c1.5,0.2,3.1,0.2,4.7,0.2c8.3,0,12.4-1.7,13.9-2.4
			c3.5-1.6,5.3-3.9,6.4-5.9c0.1-0.2,0.2-0.3,0.3-0.5l0.1,3.7l0.1,4.6l0.4,0.2c2.8-0.1,4.9-0.1,7.5-0.1c1.9,0,3.8,0,5.7,0l0.4-0.2
			l3.6-4.7l2.7-3.3l3.2-4l-0.6,8.7l-0.3,3.4l0.4,0.2c2.9-0.1,5.2-0.1,8.1-0.1c1.7,0,3.5,0,5.3,0l0.4-0.2c0.7-0.8,1.4-1.7,2.1-2.5
			c0.6-0.7,1.2-1.4,1.8-2l6.9-7.8c0.4-0.4,1.5-1.6,2.6-2.9c-0.3,0.6-0.6,1.4-1.1,2.3l-3.3,7.4l-2.6,5.5l0.2,0.2l11.1-0.1h13.6
			l0.4-0.2l2.3-4.1l-0.3-0.2C143.3,43.4,142.1,43.4,135.8,43.4z M24.9,43.8c-1.5,0.4-3.4,0.4-5.1,0.4l-1.9,0l2-4.4H22
			c2.1,0,3.1,0,3.9,0.2c0.3,0.1,1.9,0.5,1.9,1.5C27.9,42.1,27.3,43.2,24.9,43.8z M27.8,35.6C26.2,36,24.6,36,22.9,36l-1.3,0l2-4.1
			l1.4,0c2,0,2.9,0,3.8,0.2c1.7,0.4,1.7,1.1,1.7,1.4C30.5,34.4,29.4,35.2,27.8,35.6z M59.7,46.4c-4.6,0-8.3-3.7-8.3-8.3
			c0-4.6,3.7-8.3,8.3-8.3c4.6,0,8.3,3.7,8.3,8.3C68,42.7,64.3,46.4,59.7,46.4z"/>
		<path class="st1" d="M196.4,43.7c-5.2,0-8.4-1.6-8.4-4.5c0-2.4,3.2-6.7,11.4-6.7c4.4,0,6.3,0.9,7.3,1.4l0.4-0.1l2.4-4.2l-0.2-0.2
			c-1.6-0.5-2.6-0.7-5.1-1c-2-0.2-4-0.4-6.1-0.4c-15.1,0-22,6-22,11.5c0,4.9,5.1,8.5,17.1,8.5c4.4,0,7-0.4,9.1-0.9l0.3-0.2
			c0.3-0.7,0.7-1.5,1-2.2c0.4-0.7,0.8-1.5,1.2-2.2l-0.4-0.1C202.8,42.9,200.4,43.7,196.4,43.7z"/>
		<path class="st1" d="M290.1,28.4c-6.9,0.1-8.4,0.1-14.8,0.1l-0.4,0.2c-0.4,0.4-3,3.3-3.9,4.2l-6.9,7.3l-0.5-5.3l-0.2-2l-0.3-4.3
			l-0.3-0.2c-6.5,0.1-8.1,0.1-14.9,0.1l-0.3,0.2l-3.2,6l-1.9,3.6c0.3-0.8,0.5-1.6,0.5-2.5c0-1.7-0.7-3.9-4-5.7c-3-1.6-8-2-12-2
			c-5.4,0-9.8,0.6-13.1,1.9c-7.7,3-8.8,8.6-8.7,10.4c0,2.5,1.1,5.3,7.2,6.8c1.5,0.4,2.9,0.5,4.5,0.7c1.5,0.2,3.1,0.2,4.7,0.2
			c8.3,0,12.4-1.7,13.9-2.4c2.6-1.2,4.3-2.8,5.4-4.3l-0.2,0.3l-3.3,6l0.3,0.2c3.8-0.1,4.9-0.1,9-0.1l0.4-0.1l3.5-7.3l2.2-4.5
			l1.5-2.9l1,11.2l0.3,3.6l0.4,0.2l8.6-0.1l0.4-0.1l4.6-4.9l9.5-9.8l-2.7,6.6l-1.3,3.3l-1.9,4.9l0.3,0.2l10.4-0.1l0.4-0.1l1.6-5.5
			l2.4-7.3l2.1-6.1L290.1,28.4z M230.4,37.4c-0.8,2.3-2.7,6.6-8.4,6.6c-0.4,0-3.6,0-4.7-1.7c-0.4-0.5-0.4-1.2-0.4-1.4
			c0-1.8,1.6-5.2,3.5-6.8c1.9-1.6,4.3-1.9,5.6-1.9c4.6,0,5,2.2,5,3.1C230.8,35.9,230.6,36.6,230.4,37.4z"/>
	</g>
	<g>
		<g>
			<polygon class="st0" points="162.7,15.1 166.9,28 180.6,28 169.5,36 173.7,49 162.7,41 151.7,49 155.9,36 144.9,28 158.5,28 			
				"/>
			<g>
				<path class="st1" d="M162.7,19C162.7,19,162.7,19,162.7,19l0-3.9l-1.6,4.9C161.5,19.4,162.1,19,162.7,19z"/>
				<path class="st2" d="M163.9,26.2c0-0.2,0-0.3,0-0.5h-2.4v0.9h2.5C163.9,26.5,163.9,26.3,163.9,26.2z"/>
				<path class="st1" d="M161.2,42.1c-0.1-0.1-0.1-0.2-0.2-0.3c-0.8-1.5-2-4.2-2-7.9c0-4.6,2.5-6.4,2.5-7.8c0-1.4-0.9-3-0.9-4.6
					c0,0,0-0.1,0-0.1l-2.1,6.5h-13.6l11,8l-4.2,13L161.2,42.1z"/>
			</g>
			<g>
				<path class="st2" d="M170,37.4H166c-0.2,0.9-0.4,1.6-0.7,2.3h5.4L170,37.4z"/>
				<path class="st2" d="M164.3,20l-1.6-4.9V19C163.3,19,163.9,19.4,164.3,20z"/>
				<path class="st2" d="M163.9,25.7h2.3l-0.8-2.3h-0.9C164.3,24.2,164,25,163.9,25.7z"/>
				<path class="st2" d="M171.5,42h-7.2c0,0,0,0-0.1,0.1l3.1,2.3h4.9L171.5,42z"/>
				<polygon class="st2" points="170.5,46.7 173.7,49 173,46.7 				"/>
				<path class="st2" d="M166.9,28h-2.3c0.4,0.6,0.8,1.4,1.1,2.3h11.6l3.2-2.3H166.9z"/>
				<path class="st2" d="M166.4,34c0,0.4,0,0.7,0,1.1h4.6l3.2-2.3h-7.9C166.3,33.1,166.4,33.5,166.4,34z"/>
			</g>
		</g>
	</g>
</g>
<g>
	<path class="st1" d="M175.4,49c-0.4,0-0.9-0.3-0.9-0.9c0-0.5,0.4-0.9,0.9-0.9c0.5,0,0.9,0.4,0.9,0.9C176.2,48.6,175.9,49,175.4,49z
		 M175.4,47.4c-0.4,0-0.8,0.4-0.8,0.8c0,0.4,0.4,0.8,0.8,0.8c0.4,0,0.8-0.3,0.8-0.8C176.2,47.7,175.8,47.4,175.4,47.4z M175.4,47.6
		c0.1,0,0.2,0,0.3,0c0.1,0,0.2,0.2,0.2,0.3c0,0.2-0.1,0.2-0.2,0.3c0.1,0,0.1,0.1,0.1,0.2c0,0.1,0,0.2,0.1,0.3h-0.3
		c0-0.1,0-0.1-0.1-0.2c0-0.2,0-0.2-0.2-0.2h0v0.5H175v-1.1H175.4z M175.2,48h0.1c0.1,0,0.1,0,0.2,0c0,0,0-0.1,0-0.1
		c0,0,0-0.1-0.1-0.1c0,0-0.1,0-0.2,0h-0.1V48z"/>
</g>
</svg>
