<?xml version="1.0" encoding="utf-8"?>
<!-- Generator: Adobe Illustrator 19.0.1, SVG Export Plug-In . SVG Version: 6.00 Build 0)  -->
<svg version="1.1" id="Layer_2" xmlns="http://www.w3.org/2000/svg" xmlns:xlink="http://www.w3.org/1999/xlink" x="0px" y="0px"
	 viewBox="-213 580 365 65" style="enable-background:new -213 580 365 65;" xml:space="preserve">
<style type="text/css">
	.st0{fill:#FFFFFF;}
	.st1{fill:#253D85;}
	.st2{fill:#B61F36;}
	.st3{fill:none;}
</style>
<g>
	<g>
		<g>
			<g>
				<polygon class="st0" points="120,586 126.1,604.9 146,604.9 129.9,616.5 136,635.4 120,623.7 104,635.4 110.1,616.5 94.1,604.9 
					113.9,604.9 				"/>
				<g>
					<path class="st1" d="M120,591.7L120,591.7V586l-2.3,7.1C118.3,592.3,119.1,591.7,120,591.7z"/>
					<path class="st2" d="M121.7,602.2c0-0.2,0-0.5,0.1-0.7h-3.6v1.4h3.6C121.7,602.6,121.7,602.4,121.7,602.2z"/>
					<path class="st1" d="M117.8,625.3c-0.1-0.1-0.2-0.3-0.3-0.4c-1.1-2.2-2.9-6.1-2.9-11.4c0-6.7,3.6-9.3,3.6-11.3
						c0-2.1-1.4-4.3-1.4-6.7v-0.1l-3.1,9.5H93.9l16,11.7l-5.9,18.8L117.8,625.3z"/>
				</g>
				<g>
					<path class="st2" d="M130.5,618.4h-5.7c-0.3,1.3-0.6,2.4-1,3.4h7.8L130.5,618.4z"/>
					<path class="st2" d="M122.3,593.2L120,586v5.7C120.9,591.7,121.8,592.3,122.3,593.2z"/>
					<path class="st2" d="M121.7,601.5h3.3l-1.1-3.4h-1.3C122.3,599.2,121.9,600.4,121.7,601.5z"/>
					<path class="st2" d="M132.7,625.2h-10.5l-0.1,0.1l4.5,3.3h7.1L132.7,625.2z"/>
					<polygon class="st2" points="131.4,632 136,635.4 134.9,632 					"/>
					<path class="st2" d="M126.1,604.9h-3.3c0.5,0.9,1.1,2,1.6,3.4h16.8l4.7-3.4H126.1z"/>
					<path class="st2" d="M125.3,613.5c0,0.5,0,1.1-0.1,1.6h6.7l4.7-3.4h-11.4C125.3,612.2,125.3,612.8,125.3,613.5z"/>
				</g>
			</g>
		</g>
	</g>
	<g>
		<path class="st1" d="M138.4,635.4c-0.6,0-1.2-0.5-1.2-1.2s0.6-1.2,1.2-1.2c0.7,0,1.3,0.6,1.2,1.3
			C139.7,634.8,139.1,635.4,138.4,635.4z M138.4,633c-0.6,0-1.1,0.5-1.1,1.1s0.5,1.1,1.1,1.1s1.1-0.5,1.1-1.1
			C139.6,633.5,139.1,633,138.4,633z M138.4,633.3c0.1,0,0.3,0,0.4,0c0.2,0.1,0.3,0.2,0.3,0.4s-0.2,0.3-0.3,0.4
			c0.1,0.1,0.1,0.1,0.2,0.3c0,0.2,0.1,0.4,0.1,0.5h-0.4c0-0.1-0.1-0.2-0.1-0.3c0-0.3-0.1-0.3-0.3-0.3h-0.1v0.7h-0.4v-1.6h0.6V633.3z
			 M138.2,633.9h0.2c0.1,0,0.2,0,0.2,0l0.1-0.1c0-0.1,0-0.1-0.1-0.1c0,0-0.1,0-0.3,0h-0.1L138.2,633.9L138.2,633.9z"/>
	</g>
	<g>
		<g>
			<path class="st3" d="M-188,618c-0.8-0.2-1.8-0.2-3.9-0.2h-2.1l-2,4.4h1.9c1.6,0,3.6,0,5.1-0.4c2.4-0.5,3-1.7,3-2.3
				C-186.1,618.4-187.8,618-188,618z"/>
			<path class="st3" d="M-185.2,610.1c-0.9-0.2-1.9-0.2-3.8-0.2h-1.4l-2,4.1h1.3c1.7,0,3.3,0,4.9-0.4c1.6-0.4,2.7-1.3,2.7-2.2
				C-183.5,611.2-183.5,610.5-185.2,610.1z"/>
			<path class="st3" d="M11.9,610c-1.3,0-3.7,0.3-5.6,1.9c-1.9,1.6-3.5,5-3.5,6.8c0,0.2,0,0.9,0.4,1.4c1.1,1.7,4.3,1.7,4.7,1.7
				c5.7,0,7.6-4.2,8.4-6.6c0.3-0.7,0.5-1.5,0.5-2.2C16.8,612.2,16.5,610,11.9,610z"/>
			<path class="st3" d="M-154.3,607.8c-4.6,0-8.3,3.7-8.3,8.3s3.7,8.3,8.3,8.3s8.3-3.7,8.3-8.3S-149.7,607.8-154.3,607.8z
				 M-154.9,609.5c0.3-0.5,1-0.6,1.6-0.3s0.9,1,0.6,1.5c-0.3,0.5-1,0.6-1.6,0.3S-155.2,610-154.9,609.5z M-152.2,613.9
				c-0.3,0.5-1,0.6-1.6,0.3s-0.9-1-0.6-1.5c0.3-0.5,1-0.6,1.6-0.3S-151.9,613.4-152.2,613.9z M-149.1,612.6c-0.3,0.5-1,0.6-1.6,0.3
				s-0.9-1-0.6-1.5c0.3-0.5,1-0.6,1.6-0.3C-149.1,611.5-148.8,612.1-149.1,612.6z"/>
			
				<ellipse transform="matrix(-0.8814 -0.4724 0.4724 -0.8814 -577.5381 1075.2234)" class="st1" cx="-153.8" cy="610.1" rx="1.3" ry="1"/>
			
				<ellipse transform="matrix(-0.4728 0.8812 -0.8812 -0.4728 317.9195 1033.694)" class="st1" cx="-150.3" cy="612" rx="1" ry="1.3"/>
			<path class="st1" d="M-152.8,612.4c-0.6-0.3-1.3-0.2-1.6,0.3s0,1.2,0.6,1.5s1.3,0.2,1.6-0.3S-152.2,612.7-152.8,612.4z"/>
			<path class="st1" d="M-78.2,621.4h-1.3l2.5-5.2l2-4.1l2.9-5.6l-0.3-0.2l-10.4,0.1l-0.1-0.1l-9.7,0.1l-0.4,0.2
				c-1.7,2.3-2.5,3.2-4.5,5.7l-6.2,7.6l0.4-6l0.2-2.9l0.3-4.5l-0.4-0.2l-11.9,0.1l-0.5,0.1c-1.2,1.7-1.7,2.3-3.5,4.6l-6.9,8.7
				l0.4-5.6l0.3-3.9l0.2-3.9l-0.3-0.1l-11.4,0.2l-0.4,0.2c0.2,1.3,0.2,2,0.3,3.7c-0.6-0.8-1.5-1.6-2.9-2.3c-3-1.6-8-2-12-2
				c-5.4,0-9.8,0.6-13.1,1.9c-7.7,3-8.8,8.6-8.7,10.4c0,0.1,0,0.2,0,0.4c-0.3-1.4-1.9-2.3-2.9-2.7c-0.9-0.4-2-0.5-3.1-0.7
				c0.9-0.2,1.9-0.3,2.8-0.5c2.3-0.7,5.2-2.1,5.2-4.2c0-2.4-3.1-3.8-8.6-4.2c-2.3-0.1-4.4-0.1-10.3-0.1l-5.6,0.1h-4.1l-0.3,0.2
				c-1.3,3.8-1.6,4.5-4.7,11.3l-1.6,3.5l-2.2,4.1l0.3,0.2l5.1-0.1h3.5c11.2,0,12.6,0,15.9-0.4c4.6-0.5,6.7-1.5,8-2.3
				c1.8-1.1,2.6-2.8,2.7-3.8c0.3,2.3,1.7,4.6,7.1,6c1.5,0.4,2.9,0.5,4.5,0.7c1.5,0.2,3.1,0.2,4.7,0.2c8.3,0,12.4-1.7,13.9-2.4
				c3.5-1.6,5.3-3.9,6.4-5.9c0.1-0.2,0.2-0.3,0.3-0.5l0.1,3.7l0.1,4.6l0.4,0.2c2.8-0.1,4.9-0.1,7.5-0.1c1.9,0,3.8,0,5.7,0l0.4-0.2
				l3.6-4.7l2.7-3.3l3.2-4l-0.6,8.7l-0.3,3.4l0.4,0.2c2.9-0.1,5.2-0.1,8.1-0.1c1.7,0,3.5,0,5.3,0l0.4-0.2c0.7-0.8,1.4-1.7,2.1-2.5
				c0.6-0.7,1.2-1.4,1.8-2l6.9-7.8c0.4-0.4,1.5-1.6,2.6-2.9c-0.3,0.6-0.6,1.4-1.1,2.3l-3.3,7.4l-2.6,5.5l0.2,0.2l11.1-0.1h13.6
				l0.4-0.2l2.3-4.1l-0.3-0.2C-70.7,621.4-71.9,621.4-78.2,621.4z M-189.1,621.8c-1.5,0.4-3.4,0.4-5.1,0.4h-1.9l2-4.4h2.1
				c2.1,0,3.1,0,3.9,0.2c0.3,0.1,1.9,0.5,1.9,1.5C-186.1,620.1-186.7,621.2-189.1,621.8z M-186.2,613.6c-1.6,0.4-3.2,0.4-4.9,0.4
				h-1.3l2-4.1h1.4c2,0,2.9,0,3.8,0.2c1.7,0.4,1.7,1.1,1.7,1.4C-183.5,612.4-184.6,613.2-186.2,613.6z M-154.3,624.4
				c-4.6,0-8.3-3.7-8.3-8.3s3.7-8.3,8.3-8.3s8.3,3.7,8.3,8.3S-149.7,624.4-154.3,624.4z"/>
			<path class="st1" d="M-17.6,621.7c-5.2,0-8.4-1.6-8.4-4.5c0-2.4,3.2-6.7,11.4-6.7c4.4,0,6.3,0.9,7.3,1.4l0.4-0.1l2.4-4.2
				l-0.2-0.2c-1.6-0.5-2.6-0.7-5.1-1c-2-0.2-4-0.4-6.1-0.4c-15.1,0-22,6-22,11.5c0,4.9,5.1,8.5,17.1,8.5c4.4,0,7-0.4,9.1-0.9
				l0.3-0.2c0.3-0.7,0.7-1.5,1-2.2c0.4-0.7,0.8-1.5,1.2-2.2l-0.4-0.1C-11.2,620.9-13.6,621.7-17.6,621.7z"/>
			<path class="st1" d="M76.1,606.4c-6.9,0.1-8.4,0.1-14.8,0.1l-0.4,0.2c-0.4,0.4-3,3.3-3.9,4.2l-6.9,7.3l-0.5-5.3l-0.2-2l-0.3-4.3
				l-0.3-0.2c-6.5,0.1-8.1,0.1-14.9,0.1l-0.3,0.2l-3.2,6l-1.9,3.6c0.3-0.8,0.5-1.6,0.5-2.5c0-1.7-0.7-3.9-4-5.7c-3-1.6-8-2-12-2
				c-5.4,0-9.8,0.6-13.1,1.9c-7.7,3-8.8,8.6-8.7,10.4c0,2.5,1.1,5.3,7.2,6.8c1.5,0.4,2.9,0.5,4.5,0.7c1.5,0.2,3.1,0.2,4.7,0.2
				c8.3,0,12.4-1.7,13.9-2.4c2.6-1.2,4.3-2.8,5.4-4.3l-0.2,0.3l-3.3,6l0.3,0.2c3.8-0.1,4.9-0.1,9-0.1l0.4-0.1l3.5-7.3l2.2-4.5
				l1.5-2.9l1,11.2l0.3,3.6L42,626l8.6-0.1l0.4-0.1l4.6-4.9l9.5-9.8l-2.7,6.6l-1.3,3.3l-1.9,4.9l0.3,0.2l10.4-0.1l0.4-0.1l1.6-5.5
				l2.4-7.3l2.1-6.1L76.1,606.4z M16.4,615.4c-0.8,2.3-2.7,6.6-8.4,6.6c-0.4,0-3.6,0-4.7-1.7c-0.4-0.5-0.4-1.2-0.4-1.4
				c0-1.8,1.6-5.2,3.5-6.8s4.3-1.9,5.6-1.9c4.6,0,5,2.2,5,3.1C16.8,613.9,16.6,614.6,16.4,615.4z"/>
		</g>
		<g>
			<g>
				<polygon class="st0" points="-51.3,593.1 -47.1,606 -33.4,606 -44.5,614 -40.3,627 -51.3,619 -62.3,627 -58.1,614 -69.1,606 
					-55.5,606 				"/>
				<g>
					<path class="st1" d="M-51.3,597L-51.3,597v-3.9l-1.6,4.9C-52.5,597.4-51.9,597-51.3,597z"/>
					<path class="st2" d="M-50.1,604.2c0-0.2,0-0.3,0-0.5h-2.4v0.9h2.5C-50.1,604.5-50.1,604.3-50.1,604.2z"/>
					<path class="st1" d="M-52.8,620.1c-0.1-0.1-0.1-0.2-0.2-0.3c-0.8-1.5-2-4.2-2-7.9c0-4.6,2.5-6.4,2.5-7.8c0-1.4-0.9-3-0.9-4.6
						v-0.1l-2.1,6.5h-13.6l11,8l-4.2,13L-52.8,620.1z"/>
				</g>
				<g>
					<path class="st2" d="M-44,615.4h-4c-0.2,0.9-0.4,1.6-0.7,2.3h5.4L-44,615.4z"/>
					<path class="st2" d="M-49.7,598l-1.6-4.9v3.9C-50.7,597-50.1,597.4-49.7,598z"/>
					<path class="st2" d="M-50.1,603.7h2.3l-0.8-2.3h-0.9C-49.7,602.2-50,603-50.1,603.7z"/>
					<path class="st2" d="M-42.5,620h-7.2c0,0,0,0-0.1,0.1l3.1,2.3h4.9L-42.5,620z"/>
					<polygon class="st2" points="-43.5,624.7 -40.3,627 -41,624.7 					"/>
					<path class="st2" d="M-47.1,606h-2.3c0.4,0.6,0.8,1.4,1.1,2.3h11.6l3.2-2.3H-47.1z"/>
					<path class="st2" d="M-47.6,612c0,0.4,0,0.7,0,1.1h4.6l3.2-2.3h-7.9C-47.7,611.1-47.6,611.5-47.6,612z"/>
				</g>
			</g>
		</g>
	</g>
	<g>
		<path class="st1" d="M-38.6,627c-0.4,0-0.9-0.3-0.9-0.9c0-0.5,0.4-0.9,0.9-0.9s0.9,0.4,0.9,0.9C-37.8,626.6-38.1,627-38.6,627z
			 M-38.6,625.4c-0.4,0-0.8,0.4-0.8,0.8c0,0.4,0.4,0.8,0.8,0.8c0.4,0,0.8-0.3,0.8-0.8S-38.2,625.4-38.6,625.4z M-38.6,625.6
			c0.1,0,0.2,0,0.3,0s0.2,0.2,0.2,0.3c0,0.2-0.1,0.2-0.2,0.3c0.1,0,0.1,0.1,0.1,0.2c0,0.1,0,0.2,0.1,0.3h-0.3c0-0.1,0-0.1-0.1-0.2
			c0-0.2,0-0.2-0.2-0.2l0,0v0.5H-39v-1.1L-38.6,625.6L-38.6,625.6z M-38.8,626L-38.8,626c0.2,0,0.2,0,0.3,0v-0.1c0,0,0-0.1-0.1-0.1
			c0,0-0.1,0-0.2,0h-0.1L-38.8,626L-38.8,626L-38.8,626z"/>
	</g>
</g>
</svg>
