<?xml version="1.0" encoding="utf-8"?>
<!-- Generator: Adobe Illustrator 19.0.1, SVG Export Plug-In . SVG Version: 6.00 Build 0)  -->
<svg version="1.1" id="pictograms" xmlns="http://www.w3.org/2000/svg" xmlns:xlink="http://www.w3.org/1999/xlink" x="0px" y="0px"
	 viewBox="-327 569.1 135.9 86.9" style="enable-background:new -327 569.1 135.9 86.9;" xml:space="preserve">
<style type="text/css">
	.st0{fill:#FFFFFF;}
	.st1{fill:#3B5999;}
	.st2{fill:#EA2127;}
	.st3{fill:#2DA8E0;}
</style>
<g>
	<g>
		<path class="st0" d="M-309,569.1c-9.9,0-18,8.1-18,18s8.1,18,18,18s18-8.1,18-18S-299,569.1-309,569.1z M-304.5,587.7h-2.9V598
			h-4.5v-10.3h-2.2v-3.9h2.2v-3.2c0,0,0.2-3.5,4-3.5s3.6,0,3.6,0v3.6h-2.3c0,0-0.8-0.2-0.8,0.8v2.3h3.4L-304.5,587.7z"/>
	</g>
	<path class="st0" d="M-211.8,591.3c2.2-1.2,4.5-2.3,6.7-3.5c-2.3-1.2-4.5-2.3-6.7-3.5V591.3z"/>
	<path class="st0" d="M-209.1,570c-9.9,0-18,8.1-18,18s8.1,18,18,18s18-8.1,18-18S-199.1,570-209.1,570z M-198.9,593
		c-0.3,1.1-1.2,2-2.3,2.1c-2.6,0.3-5.3,0.3-7.9,0.3c-2.6,0-5.3,0-7.9-0.3c-1.1-0.1-2-1-2.3-2.1c-0.4-1.6-0.4-3.3-0.4-5
		c0-1.6,0-3.4,0.4-5c0.3-1.1,1.2-2,2.3-2.1c2.6-0.3,5.3-0.3,7.9-0.3c2.6,0,5.3,0,7.9,0.3c1.1,0.1,2,1,2.3,2.1c0.4,1.6,0.4,3.3,0.4,5
		C-198.5,589.7-198.5,591.4-198.9,593z"/>
	<path class="st0" d="M-258.3,569.5c-9.9,0-18,8.1-18,18s8.1,18,18,18c9.9,0,18-8.1,18-18C-240.3,577.5-248.3,569.5-258.3,569.5z
		 M-249.4,584.5c0,0.2,0,0.4,0,0.5c0,5.6-4.2,12-11.8,12c-2.3,0-4.5-0.7-6.4-1.9c0.3,0,0.7,0.1,1,0.1c1.9,0,3.7-0.7,5.2-1.8
		c-1.8,0-3.3-1.3-3.9-2.9c0.3,0,0.5,0.1,0.8,0.1c0.4,0,0.7-0.1,1.1-0.1c-1.9-0.4-3.3-2.1-3.3-4.1c0,0,0,0,0-0.1
		c0.6,0.3,1.2,0.5,1.9,0.5c-1.1-0.8-1.8-2-1.8-3.5c0-0.8,0.2-1.5,0.6-2.1c2,2.6,5.1,4.2,8.6,4.4c-0.1-0.3-0.1-0.6-0.1-1
		c0-2.3,1.9-4.2,4.1-4.2c1.2,0,2.3,0.5,3,1.3c0.9-0.2,1.8-0.5,2.6-1c-0.3,1-1,1.8-1.8,2.3c0.8-0.1,1.6-0.3,2.4-0.7
		C-247.9,583.1-248.6,583.9-249.4,584.5z"/>
	<g>
		<path class="st1" d="M-309,619.1c-9.9,0-18,8.1-18,18s8.1,18,18,18s18-8.1,18-18S-299,619.1-309,619.1z M-304.5,637.7h-2.9V648
			h-4.5v-10.3h-2.2v-3.9h2.2v-3.2c0,0,0.2-3.5,4-3.5s3.6,0,3.6,0v3.6h-2.3c0,0-0.8-0.2-0.8,0.8v2.3h3.4L-304.5,637.7z"/>
	</g>
	<path class="st2" d="M-211.8,641.3c2.2-1.2,4.5-2.3,6.7-3.5c-2.3-1.2-4.5-2.3-6.7-3.5V641.3z"/>
	<path class="st2" d="M-209.1,620c-9.9,0-18,8.1-18,18s8.1,18,18,18s18-8.1,18-18S-199.1,620-209.1,620z M-198.9,643
		c-0.3,1.1-1.2,2-2.3,2.1c-2.6,0.3-5.3,0.3-7.9,0.3c-2.6,0-5.3,0-7.9-0.3c-1.1-0.1-2-1-2.3-2.1c-0.4-1.6-0.4-3.3-0.4-5
		c0-1.6,0-3.4,0.4-5c0.3-1.1,1.2-2,2.3-2.1c2.6-0.3,5.3-0.3,7.9-0.3c2.6,0,5.3,0,7.9,0.3c1.1,0.1,2,1,2.3,2.1c0.4,1.6,0.4,3.3,0.4,5
		C-198.5,639.7-198.5,641.4-198.9,643z"/>
	<path class="st3" d="M-258.3,619.5c-9.9,0-18,8.1-18,18s8.1,18,18,18c9.9,0,18-8.1,18-18C-240.3,627.5-248.3,619.5-258.3,619.5z
		 M-249.4,634.5c0,0.2,0,0.4,0,0.5c0,5.6-4.2,12-11.8,12c-2.3,0-4.5-0.7-6.4-1.9c0.3,0,0.7,0.1,1,0.1c1.9,0,3.7-0.7,5.2-1.8
		c-1.8,0-3.3-1.3-3.9-2.9c0.3,0,0.5,0.1,0.8,0.1c0.4,0,0.7-0.1,1.1-0.1c-1.9-0.4-3.3-2.1-3.3-4.1c0,0,0,0,0-0.1
		c0.6,0.3,1.2,0.5,1.9,0.5c-1.1-0.8-1.8-2-1.8-3.5c0-0.8,0.2-1.5,0.6-2.1c2,2.6,5.1,4.2,8.6,4.4c-0.1-0.3-0.1-0.6-0.1-1
		c0-2.3,1.9-4.2,4.1-4.2c1.2,0,2.3,0.5,3,1.3c0.9-0.2,1.8-0.5,2.6-1c-0.3,1-1,1.8-1.8,2.3c0.8-0.1,1.6-0.3,2.4-0.7
		C-247.9,633.1-248.6,633.9-249.4,634.5z"/>
</g>
<g>
	<path class="st0" d="M-304.5,637.7h-2.9V648h-4.5v-10.3h-2.2v-3.9h2.2v-3.2c0,0,0.2-3.5,4-3.5s3.6,0,3.6,0v3.6h-2.3
		c0,0-0.8-0.2-0.8,0.8v2.3h3.4L-304.5,637.7z"/>
</g>
<path class="st0" d="M-249.4,634.5c0,0.2,0,0.4,0,0.5c0,5.6-4.2,12-11.8,12c-2.3,0-4.5-0.7-6.4-1.9c0.3,0,0.7,0.1,1,0.1
	c1.9,0,3.7-0.7,5.2-1.8c-1.8,0-3.3-1.3-3.9-2.9c0.3,0,0.5,0.1,0.8,0.1c0.4,0,0.7-0.1,1.1-0.1c-1.9-0.4-3.3-2.1-3.3-4.1
	c0,0,0,0,0-0.1c0.6,0.3,1.2,0.5,1.9,0.5c-1.1-0.8-1.8-2-1.8-3.5c0-0.8,0.2-1.5,0.6-2.1c2,2.6,5.1,4.2,8.6,4.4
	c-0.1-0.3-0.1-0.6-0.1-1c0-2.3,1.9-4.2,4.1-4.2c1.2,0,2.3,0.5,3,1.3c0.9-0.2,1.8-0.5,2.6-1c-0.3,1-1,1.8-1.8,2.3
	c0.8-0.1,1.6-0.3,2.4-0.7C-247.9,633.1-248.6,633.9-249.4,634.5z"/>
<path class="st0" d="M-198.9,633c-0.3-1.1-1.2-2-2.3-2.1c-2.6-0.3-5.3-0.3-7.9-0.3c-2.6,0-5.3,0-7.9,0.3c-1.1,0.1-2,1-2.3,2.1
	c-0.4,1.6-0.4,3.4-0.4,5c0,1.7,0,3.4,0.4,5c0.3,1.1,1.2,2,2.3,2.1c2.6,0.3,5.3,0.3,7.9,0.3c2.6,0,5.3,0,7.9-0.3c1.1-0.1,2-1,2.3-2.1
	c0.4-1.6,0.4-3.3,0.4-5C-198.5,636.3-198.5,634.6-198.9,633z M-211.8,641.3v-7c2.2,1.2,4.4,2.3,6.7,3.5
	C-207.3,639-209.6,640.1-211.8,641.3z"/>
</svg>
